<svg width="64" height="64" viewBox="0 0 64 64" fill="none" xmlns="http://www.w3.org/2000/svg">
<path d="M24.535 16.33C17.35 15.02 11.675 16.39 9.41002 20.33C7.72002 23.255 8.20502 27.135 10.58 31.28C10.6283 31.364 10.6926 31.4377 10.7694 31.4969C10.8461 31.5561 10.9338 31.5996 11.0273 31.6249C11.1209 31.6502 11.2185 31.6568 11.3146 31.6444C11.4107 31.632 11.5035 31.6007 11.5875 31.5525C11.6716 31.5042 11.7453 31.4399 11.8045 31.3631C11.8636 31.2864 11.9071 31.1987 11.9324 31.1052C11.9577 31.0116 11.9644 30.914 11.9519 30.8179C11.9395 30.7218 11.9083 30.629 11.86 30.545C9.72002 26.81 9.30002 23.46 10.685 21.045C12.565 17.79 17.63 16.545 24.27 17.775C24.4623 17.8101 24.6607 17.7674 24.8215 17.6563C24.9823 17.5452 25.0924 17.3748 25.1275 17.1825C25.1627 16.9902 25.12 16.7918 25.0089 16.631C24.8978 16.4702 24.7273 16.3601 24.535 16.325V16.33ZM14.315 36.305C17.5187 39.7384 21.2282 42.6621 25.315 44.975C35.735 50.975 46.815 52.6 52.315 48.87C52.4761 48.7599 52.5869 48.5904 52.623 48.3986C52.6591 48.2068 52.6176 48.0086 52.5075 47.8475C52.3975 47.6864 52.2279 47.5756 52.0361 47.5395C51.8444 47.5034 51.6461 47.5449 51.485 47.655C46.555 51 36 49.46 26.035 43.695C22.0859 41.4568 18.5014 38.6292 15.405 35.31C15.2724 35.1654 15.0878 35.0795 14.8918 35.0711C14.6959 35.0626 14.5046 35.1324 14.36 35.265C14.2155 35.3976 14.1295 35.5822 14.1211 35.7782C14.1127 35.9741 14.1824 36.1654 14.315 36.31V36.305Z" fill="#47848F"/>
<path d="M50.53 35.405C55.235 29.85 56.875 24.26 54.615 20.35C52.955 17.47 49.44 15.95 44.77 15.89C44.5744 15.89 44.3869 15.9677 44.2485 16.106C44.1102 16.2443 44.0325 16.4319 44.0325 16.6275C44.0325 16.8231 44.1102 17.0107 44.2485 17.149C44.3869 17.2873 44.5744 17.365 44.77 17.365C48.97 17.42 51.995 18.73 53.36 21.09C55.235 24.34 53.77 29.325 49.425 34.46C49.3627 34.5339 49.3154 34.6193 49.2861 34.7114C49.2567 34.8035 49.2458 34.9005 49.2539 34.9969C49.262 35.0932 49.2891 35.187 49.3334 35.2729C49.3778 35.3588 49.4387 35.4351 49.5125 35.4975C49.5864 35.5599 49.6718 35.6071 49.764 35.6364C49.8561 35.6658 49.9531 35.6767 50.0494 35.6686C50.1457 35.6605 50.2395 35.6335 50.3254 35.5891C50.4113 35.5447 50.4877 35.4839 50.55 35.41L50.53 35.405ZM38.445 16.575C33.8285 17.6226 29.4014 19.3766 25.32 21.775C14.565 28 7.54503 37.145 8.50003 43.785C8.51415 43.8835 8.54753 43.9782 8.59826 44.0638C8.64899 44.1494 8.71609 44.2242 8.79572 44.2838C8.87534 44.3435 8.96594 44.3869 9.06234 44.4115C9.15873 44.4362 9.25904 44.4416 9.35753 44.4275C9.45602 44.4134 9.55077 44.38 9.63636 44.3293C9.72195 44.2785 9.79672 44.2114 9.85638 44.1318C9.91604 44.0522 9.95943 43.9616 9.98408 43.8652C10.0087 43.7688 10.0142 43.6685 10 43.57C9.11503 37.675 15.765 29 26.055 23.055C30.003 20.7265 34.2868 19.0214 38.755 18C38.8496 17.9796 38.9392 17.9409 39.0188 17.8859C39.0983 17.8309 39.1663 17.7608 39.2188 17.6795C39.2712 17.5982 39.3072 17.5075 39.3245 17.4123C39.3419 17.3172 39.3404 17.2195 39.32 17.125C39.2997 17.0304 39.2609 16.9408 39.2059 16.8613C39.1509 16.7817 39.0808 16.7137 38.9995 16.6613C38.9183 16.6088 38.8275 16.5729 38.7324 16.5555C38.6372 16.5381 38.5396 16.5396 38.445 16.56V16.575Z" fill="#47848F"/>
<path d="M21 48.39C23.5 55.255 27.5 59.5 32.025 59.5C35.325 59.5 38.375 57.25 40.755 53.29C40.8598 53.1236 40.8941 52.9223 40.8505 52.7306C40.8069 52.5388 40.6889 52.3722 40.5225 52.2675C40.3561 52.1627 40.1549 52.1284 39.9631 52.172C39.7714 52.2156 39.6048 52.3336 39.5 52.5C37.36 56.06 34.735 58 32.03 58C28.27 58 24.685 54.23 22.41 47.88C22.3437 47.6963 22.2072 47.5465 22.0304 47.4635C21.8537 47.3805 21.6512 47.3712 21.4675 47.4375C21.2839 47.5038 21.1341 47.6403 21.0511 47.8171C20.9681 47.9938 20.9587 48.1963 21.025 48.38L21 48.39ZM43.5 47.045C44.8301 42.6182 45.4891 38.0171 45.455 33.395C45.455 21.19 41.185 10.675 35.1 7.96998C35.0114 7.93058 34.9158 7.90903 34.8189 7.90655C34.7219 7.90408 34.6254 7.92072 34.5349 7.95555C34.4443 7.99037 34.3615 8.04268 34.2912 8.1095C34.2209 8.17632 34.1644 8.25633 34.125 8.34498C34.0455 8.524 34.0403 8.72729 34.1106 8.91014C34.1809 9.09299 34.321 9.24041 34.5 9.31998C39.925 11.73 44 21.71 44 33.395C44.0333 37.868 43.3962 42.3207 42.11 46.605C42.0811 46.6972 42.0707 46.7943 42.0793 46.8906C42.0879 46.9868 42.1154 47.0805 42.1602 47.1662C42.205 47.2518 42.2663 47.3278 42.3404 47.3898C42.4146 47.4518 42.5003 47.4986 42.5925 47.5275C42.6848 47.5564 42.7818 47.5668 42.8781 47.5582C42.9744 47.5496 43.068 47.5221 43.1537 47.4773C43.2394 47.4325 43.3154 47.3712 43.3774 47.2971C43.4393 47.2229 43.4861 47.1372 43.515 47.045H43.5ZM57.355 46.325C57.355 45.6278 57.1483 44.9463 56.7609 44.3666C56.3736 43.7869 55.8231 43.3351 55.179 43.0683C54.5349 42.8015 53.8261 42.7317 53.1423 42.8677C52.4585 43.0037 51.8304 43.3394 51.3375 43.8324C50.8445 44.3254 50.5088 44.9535 50.3727 45.6373C50.2367 46.3211 50.3065 47.0298 50.5733 47.6739C50.8401 48.318 51.292 48.8686 51.8716 49.2559C52.4513 49.6432 53.1328 49.85 53.83 49.85C54.2929 49.85 54.7513 49.7588 55.179 49.5817C55.6067 49.4045 55.9952 49.1449 56.3226 48.8175C56.6499 48.4902 56.9095 48.1016 57.0867 47.6739C57.2638 47.2463 57.355 46.7879 57.355 46.325ZM55.88 46.325C55.88 46.7304 55.7598 47.1268 55.5345 47.4639C55.3093 47.801 54.9891 48.0638 54.6145 48.2189C54.2399 48.3741 53.8277 48.4147 53.4301 48.3356C53.0324 48.2565 52.6671 48.0612 52.3805 47.7745C52.0938 47.4878 51.8985 47.1226 51.8194 46.7249C51.7403 46.3272 51.7809 45.9151 51.9361 45.5405C52.0912 45.1659 52.354 44.8457 52.6911 44.6205C53.0282 44.3952 53.4246 44.275 53.83 44.275C54.3737 44.275 54.8951 44.491 55.2796 44.8754C55.664 45.2599 55.88 45.7813 55.88 46.325ZM10.17 49.85C10.8672 49.85 11.5487 49.6432 12.1284 49.2559C12.7081 48.8686 13.1599 48.318 13.4267 47.6739C13.6935 47.0298 13.7633 46.3211 13.6273 45.6373C13.4913 44.9535 13.1556 44.3254 12.6626 43.8324C12.1696 43.3394 11.5415 43.0037 10.8577 42.8677C10.1739 42.7317 9.46517 42.8015 8.82106 43.0683C8.17695 43.3351 7.62642 43.7869 7.23909 44.3666C6.85176 44.9463 6.64502 45.6278 6.64502 46.325C6.64502 47.2599 7.0164 48.1565 7.67747 48.8175C8.33853 49.4786 9.23513 49.85 10.17 49.85ZM10.17 48.375C9.76457 48.375 9.36822 48.2547 9.0311 48.0295C8.69398 47.8042 8.43123 47.4841 8.27607 47.1095C8.12091 46.7349 8.08031 46.3227 8.15941 45.925C8.23851 45.5274 8.43375 45.1621 8.72045 44.8754C9.00715 44.5887 9.37242 44.3935 9.77008 44.3144C10.1677 44.2353 10.5799 44.2759 10.9545 44.431C11.3291 44.5862 11.6493 44.8489 11.8745 45.1861C12.0998 45.5232 12.22 45.9195 12.22 46.325C12.22 46.8687 12.004 47.3901 11.6196 47.7745C11.2351 48.159 10.7137 48.375 10.17 48.375Z" fill="#47848F"/>
<path d="M32.025 11.565C32.7222 11.565 33.4037 11.3582 33.9834 10.9709C34.5631 10.5836 35.0149 10.0331 35.2817 9.38894C35.5485 8.74484 35.6183 8.03608 35.4823 7.35229C35.3463 6.66851 35.0105 6.04041 34.5176 5.54743C34.0246 5.05445 33.3965 4.71873 32.7127 4.58272C32.0289 4.4467 31.3202 4.51651 30.676 4.78331C30.0319 5.05011 29.4814 5.50192 29.0941 6.0816C28.7067 6.66128 28.5 7.34281 28.5 8.03999C28.5 8.97487 28.8714 9.87147 29.5324 10.5325C30.1935 11.1936 31.0901 11.565 32.025 11.565ZM32.025 10.09C31.6195 10.09 31.2232 9.96976 30.8861 9.7445C30.549 9.51924 30.2862 9.19908 30.131 8.82449C29.9759 8.4499 29.9353 8.03771 30.0144 7.64005C30.0935 7.24239 30.2887 6.87711 30.5754 6.59042C30.8621 6.30372 31.2274 6.10848 31.6251 6.02938C32.0227 5.95028 32.4349 5.99087 32.8095 6.14603C33.1841 6.30119 33.5043 6.56395 33.7295 6.90107C33.9548 7.23819 34.075 7.63453 34.075 8.03999C34.075 8.58368 33.859 9.1051 33.4746 9.48955C33.0901 9.874 32.5687 10.09 32.025 10.09ZM32.565 35.885C32.0722 35.9953 31.5577 35.9567 31.0868 35.7743C30.6159 35.5918 30.2098 35.2736 29.92 34.8601C29.6301 34.4465 29.4696 33.9562 29.4588 33.4513C29.4479 32.9464 29.5872 32.4497 29.859 32.0241C30.1308 31.5984 30.5229 31.2631 30.9855 31.0606C31.4481 30.858 31.9605 30.7974 32.4576 30.8864C32.9547 30.9754 33.4142 31.21 33.7778 31.5605C34.1414 31.911 34.3928 32.3615 34.5 32.855C34.643 33.5132 34.5199 34.2013 34.1573 34.769C33.7948 35.3367 33.2223 35.7379 32.565 35.885Z" fill="#47848F"/>
</svg>
