<svg width="48" height="48" viewBox="0 0 48 48" fill="none" xmlns="http://www.w3.org/2000/svg">
<path d="M7.1389 42.7035L3.38702 0.622864H44.613L40.857 42.6971L23.9749 47.3771L7.1389 42.7035Z" fill="#565656"/>
<path d="M24 43.8L37.6417 40.0177L40.8514 4.06348H24V43.8Z" fill="#757575"/>
<path d="M24 19.6706H17.1705L16.6987 14.3854H24V9.22461H11.0583L11.1821 10.6091L12.4503 24.8317H24V19.6706ZM24 33.0742L23.9771 33.0806L18.2295 31.5281L17.8623 27.4125H12.681L13.404 35.5159L23.9763 38.4506L24 38.4442V33.0742Z" fill="#898989"/>
<path d="M23.982 19.6706V24.8317H30.3371L29.7382 31.5251L23.982 33.0787V38.4484L34.5626 35.5159L34.6402 34.644L35.853 21.0566L35.9786 19.6706H34.5881H23.982ZM23.982 9.22461V14.3854H36.4485L36.552 13.2259L36.7875 10.6091L36.9109 9.22461H23.982Z" fill="#D7D7D7"/>
</svg>
