<svg width="48" height="48" viewBox="0 0 48 48" fill="none" xmlns="http://www.w3.org/2000/svg">
<path d="M24 33.03C28.9871 33.03 33.03 28.9871 33.03 24C33.03 19.0128 28.9871 14.97 24 14.97C19.0128 14.97 14.97 19.0128 14.97 24C14.97 28.9871 19.0128 33.03 24 33.03Z" fill="#757575"/>
<path d="M42.4275 8.67748C42.4284 8.08196 42.2578 7.49877 41.9361 6.99761C41.6144 6.49645 41.1552 6.0985 40.6134 5.85133C40.0716 5.60415 39.4701 5.5182 38.8808 5.60375C38.2914 5.68929 37.7392 5.94271 37.29 6.33373C32.8157 2.96703 27.2314 1.42202 21.6629 2.01023C16.0945 2.59844 10.9562 5.27612 7.28413 9.50333C3.61205 13.7305 1.67935 19.1929 1.87575 24.7888C2.07214 30.3848 4.38301 35.6982 8.3424 39.6576C12.3018 43.617 17.6152 45.9278 23.2111 46.1242C28.8071 46.3206 34.2694 44.3879 38.4966 40.7158C42.7239 37.0438 45.4015 31.9055 45.9897 26.337C46.5779 20.7686 45.0329 15.1842 41.6662 10.71C42.1574 10.1468 42.4278 9.42474 42.4275 8.67748ZM24 45.375C20.6134 45.3778 17.2746 44.5758 14.2587 43.0352C11.2429 41.4946 8.63619 39.2594 6.65353 36.5139C4.67087 33.7683 3.36895 30.591 2.85504 27.2436C2.34114 23.8962 2.62995 20.4747 3.69769 17.2608C4.76543 14.0469 6.58153 11.1328 8.99637 8.75839C11.4112 6.38403 14.3556 4.61744 17.5871 3.60417C20.8186 2.5909 24.2445 2.35995 27.5827 2.93036C30.9209 3.50077 34.0758 4.8562 36.7875 6.88498C36.3638 7.48232 36.1652 8.21034 36.2268 8.9401C36.2884 9.66985 36.6063 10.3543 37.1241 10.8721C37.642 11.39 38.3264 11.7078 39.0561 11.7695C39.7859 11.8311 40.5139 11.6324 41.1112 11.2087C43.4839 14.3853 44.9263 18.1591 45.2771 22.1084C45.628 26.0577 44.8735 30.0267 43.0981 33.5718C41.3226 37.1169 38.5961 40.0983 35.2235 42.1827C31.8508 44.2671 27.9648 45.3724 24 45.375Z" fill="#757575"/>
</svg>
