<svg width="64" height="64" viewBox="0 0 64 64" fill="none" xmlns="http://www.w3.org/2000/svg">
<path d="M32 44.04C38.6495 44.04 44.04 38.6495 44.04 32C44.04 25.3505 38.6495 19.96 32 19.96C25.3505 19.96 19.96 25.3505 19.96 32C19.96 38.6495 25.3505 44.04 32 44.04Z" fill="#4E8EF7"/>
<path d="M56.57 11.57C56.5712 10.776 56.3437 9.99839 55.9148 9.33017C55.4859 8.66195 54.8736 8.13136 54.1512 7.8018C53.4288 7.47223 52.6268 7.35763 51.841 7.47169C51.0552 7.58575 50.3189 7.92364 49.72 8.445C43.7543 3.95607 36.3085 1.89605 28.8839 2.68033C21.4594 3.46461 14.6083 7.03485 9.71219 12.6711C4.81609 18.3074 2.23916 25.5905 2.50102 33.0518C2.76287 40.5131 5.84403 47.5976 11.1232 52.8768C16.4024 58.1559 23.4869 61.2371 30.9482 61.499C38.4095 61.7608 45.6926 59.1839 51.3288 54.2878C56.9651 49.3917 60.5354 42.5406 61.3196 35.116C62.1039 27.6915 60.0439 20.2457 55.555 14.28C56.2099 13.5291 56.5705 12.5663 56.57 11.57ZM32 60.5C27.4845 60.5037 23.0328 59.4344 19.0117 57.3803C14.9905 55.3261 11.5149 52.3459 8.87139 48.6852C6.22784 45.0244 4.49195 40.788 3.80674 36.3248C3.12154 31.8616 3.50662 27.2995 4.93027 23.0144C6.35393 18.7292 8.7754 14.8437 11.9952 11.6779C15.2149 8.51207 19.1409 6.15661 23.4495 4.80559C27.7581 3.45456 32.326 3.14663 36.777 3.90717C41.2279 4.66771 45.4344 6.47496 49.05 9.18C48.485 9.97645 48.2202 10.9471 48.3023 11.9201C48.3845 12.8932 48.8083 13.8057 49.4988 14.4962C50.1893 15.1866 51.1018 15.6105 52.0748 15.6926C53.0478 15.7748 54.0185 15.5099 54.815 14.945C57.9785 19.1804 59.9017 24.2122 60.3695 29.4779C60.8373 34.7436 59.8314 40.0356 57.4641 44.7624C55.0968 49.4891 51.4615 53.4643 46.9646 56.2436C42.4677 59.0228 37.2864 60.4965 32 60.5Z" fill="#4E8EF7"/>
</svg>
