<svg width="64" height="64" viewBox="0 0 64 64" fill="none" xmlns="http://www.w3.org/2000/svg">
<path fill-rule="evenodd" clip-rule="evenodd" d="M0.609497 28.078C0.609497 28.4295 0.712997 28.6615 0.770997 28.887C1.149 30.3535 1.9615 31.612 2.9255 32.76C4.2985 34.396 5.98 35.713 7.7025 36.9515C9.1965 38.0255 10.721 39.0755 12.221 40.1415C12.4785 40.3245 12.722 40.535 13.0015 40.7595C12.761 40.8895 12.561 41.004 12.353 41.1095C10.3735 42.1135 8.469 43.239 6.7135 44.6025C5.6555 45.4245 4.6325 46.298 3.91 47.4395C2.7475 49.2755 2.336 51.2315 3.2025 53.32C3.4555 53.93 3.8415 54.457 4.386 54.8465C4.5625 54.9725 4.7605 55.0975 4.967 55.1465C5.496 55.271 6.035 55.3525 6.5705 55.451L8.087 55.45C9.764 55.3005 11.2905 54.726 12.67 53.774C14.826 52.286 16.2785 50.291 16.903 47.7305C17.357 45.8695 17.3755 44.0065 16.8405 42.154C16.7893 41.9824 16.7302 41.8132 16.6635 41.647C16.5985 41.4805 16.522 41.3185 16.432 41.111L19.87 39.134L19.9215 39.178C19.859 39.3825 19.7925 39.5865 19.736 39.793C19.3275 41.285 19.056 42.803 19.1535 44.3515C19.2575 46.0015 19.718 47.546 20.684 48.9245C21.465 50.0395 23.326 50.081 24.156 48.962C24.4505 48.5645 24.736 48.149 24.9505 47.7055C25.511 46.548 26.03 45.37 26.5655 44.2L26.659 43.986C26.6205 44.54 26.5755 45.0265 26.555 45.5135C26.523 46.274 26.5675 47.03 26.8275 47.7535C27.05 48.3725 27.4285 48.835 28.1375 48.9165C28.6225 48.972 29.009 48.75 29.3655 48.4685C29.9178 48.0321 30.3756 47.4879 30.711 46.869C31.6615 45.1235 32.6375 43.3885 33.499 41.599C34.431 39.6635 35.246 37.6715 36.1115 35.703L36.2545 35.354C36.459 36.1575 36.6015 36.9445 36.864 37.6895C37.169 38.554 37.5465 39.398 37.9575 40.2185C38.152 40.606 38.1295 40.8575 37.86 41.1825C36.732 42.5425 35.6235 43.919 34.514 45.294C34.2685 45.5975 34.024 45.9065 33.8195 46.238C33.6954 46.4473 33.6139 46.6791 33.5795 46.92C33.5451 47.1418 33.5979 47.3683 33.7268 47.552C33.8557 47.7357 34.0507 47.8624 34.271 47.9055C34.7155 48.0012 35.1714 48.0337 35.625 48.002C37.1735 47.888 38.5795 47.3445 39.8225 46.4235C41.433 45.2305 41.95 43.6025 41.56 41.673C41.4545 41.1495 41.268 40.6405 41.0865 40.136C41.005 39.9085 40.9995 39.749 41.148 39.537C42.4355 37.6985 43.5355 35.748 44.5585 33.7525C44.599 33.674 44.6405 33.5955 44.7115 33.5115C45.043 35.2365 45.542 36.899 46.436 38.4075C45.98 38.847 45.5285 39.2455 45.12 39.6845C44.2205 40.6515 43.4405 41.7015 43.0335 42.982C42.8585 43.534 42.724 44.095 42.802 44.6845C42.923 45.6 43.673 46.195 44.5735 45.9865C46.5005 45.5405 48.164 44.6325 49.3795 43.024C50.1975 41.941 50.272 40.733 49.9295 39.4675C49.8355 39.1235 49.724 38.785 49.604 38.3905C50.0795 38.243 50.543 38.066 51.0225 37.9565C53.512 37.3885 55.9745 37.4875 58.3735 38.3865C59.774 38.9115 60.9055 39.79 61.5765 41.172C62.396 42.8615 61.943 44.4645 60.3505 45.5325C60.202 45.632 60.032 45.7105 59.909 45.835C59.8696 45.8807 59.8401 45.934 59.8225 45.9917C59.8048 46.0494 59.7994 46.1101 59.8065 46.17C59.817 46.2315 59.9795 46.3085 60.073 46.3075C60.5965 46.3035 61.021 46.029 61.4285 45.747C62.4495 45.0405 63.1945 44.09 63.355 42.8385L63.3865 42.7445L63.348 41.9295C63.3325 41.8825 63.3595 41.836 63.356 41.8005C63.139 39.978 62.1655 38.5645 60.7495 37.4565C59.1095 36.174 57.173 35.646 55.125 35.5625C53.464 35.491 51.8051 35.7463 50.2425 36.314C49.794 36.4765 49.3495 36.669 48.8985 36.8505C48.838 36.741 48.773 36.636 48.7195 36.5275C48.2565 35.5795 47.6955 34.6735 47.5715 33.5865C47.4835 32.8145 47.3755 32.0435 47.559 31.28C47.7355 30.5455 47.9655 29.8235 48.182 29.099C48.2935 28.726 48.215 28.517 47.859 28.349C47.735 28.2871 47.6026 28.2437 47.466 28.22C46.591 28.093 45.728 28.1655 44.8805 28.412C44.5805 28.4995 44.3625 28.6675 44.296 28.9995C44.258 29.19 44.1805 29.3725 44.1265 29.5605C43.905 30.342 43.748 31.1385 43.39 31.883C42.493 33.7505 41.469 35.5475 40.421 37.3315C40.3075 37.524 40.188 37.713 40.045 37.9465C39.677 37.1765 39.2845 36.4855 39.1655 35.6755C39.031 34.7595 38.925 33.845 39.153 32.936C39.3225 32.258 39.544 31.5925 39.748 30.9235C39.8445 30.6055 39.8 30.4385 39.512 30.271C39.3665 30.1865 39.202 30.1115 39.038 30.087C38.1408 29.9503 37.2241 30.0253 36.361 30.306C36.0895 30.394 35.947 30.5695 35.864 30.8495C35.62 31.6755 35.412 32.5215 35.0695 33.307C33.6825 36.487 32.2555 39.6505 30.83 42.8135C30.5325 43.474 30.184 44.1115 29.8485 44.7545C29.7635 44.9175 29.6395 45.061 29.5335 45.214C29.4485 45.1135 29.4155 45.0445 29.416 44.9755C29.4185 44.569 29.37 44.1505 29.4475 43.7575C29.6855 42.5689 29.9485 41.3855 30.2365 40.208C30.4715 39.235 30.745 38.271 31.0055 37.3045C31.093 36.981 31.0945 36.6785 30.862 36.4065C30.4715 35.951 29.6555 35.851 29.1715 36.202L28.9575 36.323L28.999 35.978C29.101 35.2385 29.1215 34.5015 28.9185 33.773C28.6655 32.865 28.0175 32.3425 27.0755 32.3715C26.6365 32.385 26.1755 32.46 25.769 32.62C24.0595 33.29 22.745 34.4765 21.626 35.904C21.5223 36.0365 21.3937 36.1476 21.2475 36.231C19.801 37.033 18.35 37.825 16.8995 38.62L15.285 39.5045C14.852 39.0915 14.4585 38.663 14.012 38.2995C12.6485 37.1875 11.263 36.103 9.89 35.0035C8.673 34.029 7.494 33.014 6.592 31.7235C5.921 30.7635 5.4885 29.713 5.447 28.526C5.3945 27.0135 5.8235 25.6315 6.5935 24.345C7.5785 22.699 8.922 21.378 10.399 20.1815C11.9615 18.9165 13.6515 17.8425 15.403 16.862C17.8535 15.4905 20.374 14.2765 23.0765 13.475C25.8475 12.653 28.659 12.1825 31.559 12.5105C32.699 12.6395 33.806 12.9005 34.8225 13.458C35.601 13.8845 36.2395 14.443 36.5365 15.316C36.8295 16.175 36.8205 17.0455 36.6175 17.918C36.205 19.685 35.2375 21.1415 34.02 22.443C32.023 24.5765 29.587 26.029 26.8445 26.9885C25.2676 27.5409 23.627 27.8909 21.962 28.03C20.5975 28.1445 19.2615 28.0235 17.9695 27.549C17.114 27.2345 16.369 26.7535 15.77 26.0555C15.663 25.9305 15.526 25.795 15.3265 25.912C15.131 26.027 15.0965 26.213 15.162 26.4015C15.2715 26.7145 15.3725 27.0405 15.543 27.3205C15.9715 28.023 16.5965 28.5325 17.2845 28.9695C18.606 29.81 20.083 30.0925 21.6145 30.158C23.9385 30.2585 26.206 29.9115 28.4415 29.288C31.633 28.398 34.408 26.826 36.6335 24.346C38.4865 22.281 39.81 19.9505 40.0935 17.1365C40.232 15.763 40.0845 14.4175 39.4415 13.1645C38.744 11.807 37.635 10.7975 36.309 10.102C34.378 9.0895 32.294 8.5 30.143 8.5H27.988C25.383 8.5 22.8645 9.2465 20.4165 10.137C18.5635 10.8115 16.7465 11.6075 14.9825 12.4885C11.141 14.408 7.5635 16.7225 4.625 19.905C3.161 21.4905 1.9215 23.24 1.2085 25.3C0.9933 25.915 0.807917 26.5401 0.652997 27.173M14.5725 45.1795C14.406 47.409 13.3955 49.2165 11.744 50.6805C10.815 51.5035 9.7495 52.0895 8.5085 52.2955C8.0585 52.37 7.598 52.388 7.1615 52.2015C6.539 51.9355 6.3995 51.383 6.3875 50.7945C6.369 49.8565 6.6975 49.0085 7.148 48.2015C7.736 47.1495 8.598 46.3475 9.5185 45.5985C10.9685 44.418 12.5415 43.419 14.1525 42.476L14.274 42.426C14.523 43.346 14.6415 44.2545 14.5725 45.1795ZM27.1515 35.49C27.034 36.202 26.887 36.9145 26.679 37.6045C25.96 39.993 25.0365 42.3075 24.038 44.591C23.8535 45.0135 23.585 45.399 23.3515 45.7995C23.3118 45.8611 23.2642 45.9172 23.21 45.9665C22.921 46.252 22.647 46.237 22.501 45.8635C22.331 45.4295 22.2265 44.965 22.1365 44.5055C22.076 44.197 22.0905 43.873 22.0715 43.557C22.091 41.31 22.7765 39.268 23.9395 37.367C24.419 36.583 24.941 35.836 25.7385 35.34C25.9866 35.1858 26.255 35.0669 26.536 34.987C26.961 34.8675 27.222 35.064 27.1515 35.49ZM35.7335 46.424L38.818 42.8225C38.9465 44.16 36.673 46.83 35.7335 46.424ZM45.585 44.0005C45.367 44.1255 45.1295 44.2155 44.906 44.331C44.7015 44.437 44.634 44.33 44.628 44.154C44.625 44.0322 44.6407 43.9106 44.6745 43.7935C45.091 42.3245 45.8575 41.0705 46.998 40.0505L47.078 40.0095C47.6205 41.527 46.9935 43.1935 45.585 44.0005Z" fill="#CB6699"/>
</svg>
