<svg width="48" height="48" viewBox="0 0 48 48" fill="none" xmlns="http://www.w3.org/2000/svg">
<g clip-path="url(#clip0_61_53)">
<path d="M24.0015 9.60077C17.6014 9.60077 13.6028 12.7995 12.0015 19.1996C14.4008 16.0005 17.2017 14.8009 20.4008 15.6008C22.2274 16.056 23.5328 17.3805 24.9784 18.8483C27.3312 21.2359 30.0544 24 36.0015 24C42.4013 24 46.4003 20.8009 48.0015 14.3993C45.6019 17.6003 42.8014 18.7999 39.6019 18C37.7757 17.5444 36.4718 16.2203 35.0243 14.7525C32.673 12.3649 29.9505 9.60077 24.0015 9.60077ZM12.0015 24C5.60178 24 1.60278 27.1991 0.00152588 33.6008C2.40078 30.3998 5.20128 29.2001 8.40078 30C10.2274 30.4556 11.5328 31.7798 12.9784 33.2475C15.3312 35.6351 18.0544 38.3993 24.0015 38.3993C30.4013 38.3993 34.4003 35.2005 36.0015 28.8004C33.6019 31.9995 30.8014 33.1991 27.6019 32.3993C25.7757 31.944 24.4718 30.6195 23.0243 29.1518C20.673 26.7641 17.9505 24 12.0015 24Z" fill="#717171"/>
</g>
<defs>
<clipPath id="clip0_61_53">
<rect width="48" height="48" fill="white"/>
</clipPath>
</defs>
</svg>
