<svg width="24" height="24" viewBox="0 0 24 24" fill="none" xmlns="http://www.w3.org/2000/svg">
<circle cx="12" cy="12" r="11" stroke="#717171" stroke-width="2"/>
<path d="M18 10.4573V15.442C18 15.9944 17.5179 16.4464 16.9286 16.4464H7.07143C6.48214 16.4464 6 15.9944 6 15.442V10.4573C6.20089 10.6645 6.42857 10.8465 6.67634 11.0035C7.78795 11.7129 8.91295 12.4223 10.0045 13.1694C10.567 13.5586 11.2634 14.0357 11.9933 14.0357H12.0067C12.7366 14.0357 13.433 13.5586 13.9955 13.1694C15.0871 12.4286 16.2121 11.7129 17.3304 11.0035C17.5714 10.8465 17.7991 10.6645 18 10.4573ZM18 8.61161C18 9.31474 17.4442 9.9488 16.8549 10.3318C15.8103 11.0098 14.7589 11.6878 13.721 12.3721C13.2857 12.6546 12.5491 13.2321 12.0067 13.2321H11.9933C11.4509 13.2321 10.7143 12.6546 10.279 12.3721C9.24107 11.6878 8.18973 11.0098 7.15179 10.3318C6.67634 10.0304 6 9.32101 6 8.74973C6 8.13449 6.35491 7.60715 7.07143 7.60715H16.9286C17.5112 7.60715 18 8.05916 18 8.61161Z" fill="#717171"/>
</svg>
