<svg width="24" height="24" viewBox="0 0 24 24" fill="currentColor" xmlns="http://www.w3.org/2000/svg">
<g clip-path="url(#clip0_129_273)">
<path d="M20.461 3.4875C18.2157 1.2375 15.2298 0 12.047 0C5.49385 0 0.159473 5.33438 0.159473 11.8922C0.159473 13.9875 0.70791 16.0359 1.74854 17.8359L0.0610352 24L6.36572 22.3453C8.10478 23.2922 10.0595 23.7938 12.047 23.7938H12.0517C18.6048 23.7938 23.9438 18.4594 23.9438 11.9016C23.9438 8.72344 22.7063 5.7375 20.461 3.4875ZM12.0517 21.7875C10.2751 21.7875 8.53603 21.3094 7.01728 20.4094L6.65635 20.1937L2.91572 21.1734L3.91416 17.5266L3.67979 17.1516C2.68603 15.5812 2.16572 13.7625 2.16572 11.8922C2.16572 6.44062 6.6001 2.00625 12.0563 2.00625C14.6954 2.00625 17.1798 3.0375 19.0454 4.90312C20.911 6.77344 21.9376 9.25313 21.9376 11.8969C21.9329 17.3531 17.4985 21.7875 12.0517 21.7875ZM17.4704 14.3812C17.1751 14.2312 15.7126 13.5141 15.4407 13.4156C15.1688 13.3172 14.972 13.2656 14.7704 13.5656C14.5735 13.8609 14.0017 14.5312 13.8282 14.7328C13.6548 14.9297 13.4813 14.9578 13.186 14.8078C12.8907 14.6578 11.9298 14.3438 10.7954 13.3312C9.91416 12.5437 9.31416 11.5688 9.14072 11.2734C8.96729 10.9781 9.12197 10.8141 9.27197 10.6688C9.40791 10.5375 9.56729 10.3219 9.71729 10.1484C9.86728 9.975 9.91416 9.85312 10.0126 9.65156C10.111 9.45469 10.0642 9.28125 9.98916 9.13125C9.91416 8.98125 9.31885 7.51875 9.0751 6.92344C8.83604 6.34219 8.5876 6.42188 8.40479 6.4125C8.23135 6.40313 8.03447 6.40313 7.8376 6.40313C7.64072 6.40313 7.31729 6.47813 7.04541 6.77344C6.77354 7.06875 6.00479 7.79062 6.00479 9.25312C6.00479 10.7156 7.06885 12.1266 7.21885 12.3281C7.36885 12.525 9.31416 15.5297 12.2954 16.8141C13.0032 17.1188 13.5563 17.3016 13.9876 17.4422C14.7001 17.6672 15.347 17.6344 15.8579 17.5594C16.4298 17.475 17.6157 16.8422 17.8642 16.1484C18.1126 15.4547 18.1126 14.8594 18.0376 14.7375C17.9673 14.6062 17.7704 14.5312 17.4704 14.3812Z" fill="currentColor"/>
</g>
<defs>
<clipPath id="clip0_129_273">
<rect width="24" height="24" fill="currentColor"/>
</clipPath>
</defs>
</svg>
